<?xml version="1.0" encoding="utf-8"?>
<!-- Generator: Adobe Illustrator 23.0.2, SVG Export Plug-In . SVG Version: 6.00 Build 0)  -->
<svg version="1.1" id="Layer_1" xmlns="http://www.w3.org/2000/svg" xmlns:xlink="http://www.w3.org/1999/xlink" x="0px" y="0px"
	 viewBox="0 0 673 553" style="enable-background:new 0 0 673 553;" xml:space="preserve">
<style type="text/css">
	.st0{fill:#2E3192;}
	.st1{clip-path:url(#SVGID_2_);fill:#231F20;}
	.st2{fill:#3653A4;}
	.st3{fill:#326AB4;}
	.st4{fill:#3670B8;}
	.st5{fill:#307CC0;}
	.st6{fill:#0073BB;}
	.st7{fill:#2F1F4A;}
	.st8{clip-path:url(#SVGID_4_);}
	.st9{fill:#088EB8;}
	.st10{fill:#0091CD;}
	.st11{fill:#FFFFFF;}
	.st12{fill:#B58F62;}
	.st13{fill:#0E241D;}
	.st14{enable-background:new    ;}
</style>
<g id="main" transform="translate(-497 -51)">
	<g id="blogor" transform="translate(7.664 0)">
		<g id="tail" transform="translate(0 164.102)">
			<g>
				<path class="st0" d="M820.7,261.9c0,0-19.8,25.1-55,23.7c-35.2-1.4,30.4,29.4,58.6-14.9S820.7,261.9,820.7,261.9z"/>
			</g>
			<g>
				<g>
					<defs>
						<path id="SVGID_1_" d="M791.5,287.6c-19.6,2.5-30.3,1.7-36,0.4c0.6,5.3,38.4,15.7,62.1-8.9
							C811.5,282.9,803.1,286.2,791.5,287.6z"/>
					</defs>
					<clipPath id="SVGID_2_">
						<use xlink:href="#SVGID_1_"  style="overflow:visible;"/>
					</clipPath>
					<rect x="755.5" y="279.2" class="st1" width="62.1" height="24.5"/>
				</g>
			</g>
		</g>
		<g id="horns" transform="translate(27.343 2.391)">
			<g>
				<path class="st2" d="M774.4,260.1c-3.5-2.7-7.7-10.9-12.2-11.6c-14.5-2.2-3.6,41,18.4,32.6l10.9-17.7
					C785.4,266.2,779.5,264,774.4,260.1z"/>
			</g>
			<g>
				<path class="st2" d="M838,260.1c3.5-2.7,7.7-10.9,12.2-11.6c14.5-2.2,3.6,41-18.4,32.6l-10.9-17.7
					C826.9,266.2,832.9,264,838,260.1z"/>
			</g>
		</g>
		<g id="hands" transform="translate(9.935 112.483)">
			<g>
				<path class="st2" d="M767.7,270.6c-7.7,10.8-15.7,28.5-10.4,35.5c5.9,3.2,7.6-1.9,7-6.4c2.2,6.5,9.4,10.7,8.9-0.9
					c2.2,5.7,8.2,0.8,5.8-5.7c-2.3-6.2-5.2-7.3-2-15.1c3.9-9.5,17.3-20,27.6-19.8l0.5-9.5C791.6,246.9,774.8,260.5,767.7,270.6z"/>
			</g>
			<g>
				<path class="st2" d="M880.6,269.4c8.5,10.1,18,27.1,13.3,34.5c-5.6,3.6-7.7-1.3-7.6-5.8c-1.7,6.7-8.5,11.5-9-0.2
					c-1.7,5.9-8.1,1.5-6.2-5.2c1.8-6.4,4.6-7.7,0.7-15.2c-4.7-9.1-18.9-18.5-29.2-17.4l-1.3-9.5C854.8,247.9,872.7,260,880.6,269.4z
					"/>
			</g>
		</g>
		<g id="legs" transform="translate(36.017 183.6)">
			<g>
				<path class="st2" d="M761.2,249.1c0.5,11.1,6.8,23.1,13.2,32c-5.5-1.5-15.4,0.5-18.1,6.1c-3.9,7.8,8.2,9.5,14.6,8.9
					c4.4-0.4,18.5-1,20.8-4.8c2.3-3.8-1.8-22-3.8-25.6L761.2,249.1z"/>
			</g>
			<g>
				<path class="st2" d="M833.3,248.4c-0.5,11.1-6.8,23.1-13.2,32c5.5-1.5,15.4,0.5,18.1,6.1c3.9,7.8-8.2,9.5-14.6,8.9
					c-4.4-0.4-18.5-1-20.8-4.8c-2.3-3.8,1.8-22,3.8-25.6L833.3,248.4z"/>
			</g>
		</g>
		<g id="body" transform="translate(40.73 107.954)">
			<g>
				<path class="st3" d="M812.1,248.4h-39.5c-8.9,23.2-17.8,47.5-17,71.6c1.1,36.6,72.5,36.3,73.6,0
					C829.9,295.9,821,273,812.1,248.4z"/>
			</g>
			<g transform="translate(7.626 9.759)">
				<g>
					<path class="st4" d="M781.3,329.2c-12-0.4-22.3-5.6-25.3-17.7c-2.5-10.3,7-63.1,28.8-63.1c22.6,0,29,42.4,28.6,58.5
						C813.1,318.8,801.4,329.9,781.3,329.2z"/>
				</g>
			</g>
			<g transform="translate(21.481 29.072)">
				<g>
					<path class="st5" d="M769,290.6c-6.3-0.2-11.7-2.9-13.2-9.2c-1.4-5.4,3.6-32.9,15-32.9c11.8,0,15.1,22.1,14.9,30.5
						C785.5,285.2,779.5,291,769,290.6z"/>
				</g>
			</g>
		</g>
		<g id="head" transform="translate(17.575)">
			<g>
				<path class="st6" d="M873.4,334.5c0.3-5.2-1.5-20.8-7.3-25.8c-3.3-8.1-7.9-16.3-11-22.7c-4.8-10-13.3-17.7-23.7-21.4
					c-2.3-6-4.6-13.4-10.4-16.2c-0.2,3.6,0,7.4-0.2,11c-2.2-1.8-3.8-4.6-6.5-5.7c-0.1,1.4-1.5,3.1-1.7,4.4c-2.6-2-4.7-5.3-7.9-5.7
					c-0.6,3.2-0.2,6.5,1.4,9.4c-3.5-1.7-9.1-5.1-9.7-9.3c-2.7,5.7-0.2,9.8,2.3,13.5c-2-3-18.2,16.3-19.3,18.1
					c-5,8.7-9.8,16.3-14.1,25.4c-4.4,9.4-9.8,18.2-9.8,29.3c0.8-2.4,2.5-4.4,4.8-5.5c-1,6.4,3.8,16.1,8.2,20.4
					c0-1.5,0.6-2.7,0.6-4.2c3.1,6.1,9.5,8,15.4,10.2c-0.4-0.9-0.4-1.8-0.8-2.6c3.6,0.7,7.2,1.1,10.8,1.2l0.7,0.2
					c10.5,3.1,24.5,3.8,37.4,1.3l-2.2,4.5c5.3-4,15.5-0.5,19.8-7.6c-0.6,2-1,4.1-1.3,6.2c5.2-2.1,11.4-7.7,13.5-12.4
					c0.5,1.5,2.1,3.9,2.6,5.3c1.2-7.6,2.9-14.3,3.5-21.7c0.5-1.5,0.8-3,1-4.6C871.2,330.1,871.9,334.2,873.4,334.5z"/>
			</g>
			<g transform="translate(42.586 71.903)">
				<g>
					<path class="st7" d="M755.5,270.3c0-0.7,7.7-1.8,8.3-1.9c5.7-0.8,11.6-0.9,17.3-0.2c0.6,0.1,9.5,1.2,9.5,2
						c-0.1-8.6-4.8-19.1-14.2-21.4c-9.8-2.5-17.2,6.1-19.9,14.1C755.8,265.3,755.5,267.8,755.5,270.3L755.5,270.3z"/>
				</g>
				<g>
					<defs>
						<path id="SVGID_3_" d="M755.5,270.3c0-0.7,7.7-1.8,8.3-1.9c5.7-0.8,11.6-0.9,17.3-0.2c0.6,0.1,9.5,1.2,9.5,2
							c-0.1-8.6-4.8-19.1-14.2-21.4c-9.8-2.5-17.2,6.1-19.9,14.1C755.8,265.3,755.5,267.8,755.5,270.3L755.5,270.3z"/>
					</defs>
					<clipPath id="SVGID_4_">
						<use xlink:href="#SVGID_3_"  style="overflow:visible;"/>
					</clipPath>
					<g class="st8">
						<g>
							<path class="st9" d="M783,265.8c-2.2-4.2-8.6-4.1-11.3,0c-2-2.6-6.6-4.3-9.3-1.9c-1.3,1.1-1.9,4.1-1.9,7.2
								c1.9,2.6,4.6,4.5,7.8,5.5c6.7,1.9,12.2-2.5,15.5-8.2C783.7,267.4,783.4,266.6,783,265.8z"/>
						</g>
					</g>
				</g>
			</g>
			<g transform="translate(31.286 32.431)">
				<g>
					<path class="st10" d="M783.3,261.9c-0.1,7.3-6.4,13.2-14.1,13.1c-7.7-0.1-13.8-6.1-13.7-13.5c0.1-7.3,6.4-13.2,14.1-13.1
						C777.2,248.5,783.4,254.6,783.3,261.9z"/>
				</g>
				<g>
					<path class="st11" d="M780.1,261.9c0.2,5.9-4.5,10.9-10.4,11.1c-5.9,0.2-10.9-4.5-11.1-10.4s4.5-10.9,10.4-11.1
						c0.2,0,0.3,0,0.5,0C775.3,251.4,780.1,256.1,780.1,261.9z"/>
				</g>
				<g>
					<path class="st12" d="M776.8,261.8c0.1,4.1-3.1,7.5-7.2,7.6c-4.1,0.1-7.5-3.1-7.6-7.2c-0.1-4.1,3.1-7.5,7.2-7.6
						c0.1,0,0.2,0,0.3,0C773.5,254.6,776.7,257.8,776.8,261.8z"/>
				</g>
				<g>
					<path class="st13" d="M774.3,261.8c0.1,2.7-2,5-4.8,5.1s-5-2-5.1-4.8s2-5,4.8-5.1c0.1,0,0.2,0,0.2,0
						C772.1,257,774.3,259.1,774.3,261.8z"/>
				</g>
				<g>
					<path class="st11" d="M776.9,258.6c0.1,1.9-1.4,3.4-3.3,3.5c-1.9,0.1-3.4-1.4-3.5-3.3s1.4-3.4,3.3-3.5c0,0,0.1,0,0.1,0
						C775.4,255.3,776.9,256.8,776.9,258.6C776.9,258.6,776.9,258.6,776.9,258.6z"/>
				</g>
				<g>
					<path class="st10" d="M789.8,255.6c4.9-4.5,12.4-4.4,17.2,0.2c4.5,4.3,4.6,11.5,0.3,15.9c-0.2,0.2-0.3,0.3-0.5,0.5
						c-4.9,4.5-12.4,4.4-17.2-0.2c-4.5-4.3-4.6-11.5-0.3-15.9C789.5,255.9,789.6,255.7,789.8,255.6L789.8,255.6z"/>
				</g>
				<g>
					<path class="st11" d="M791.7,257.5c3.8-3.5,9.6-3.4,13.3,0.2c3.5,3.4,3.5,8.9,0.2,12.4c-0.1,0.1-0.2,0.2-0.4,0.4
						c-3.8,3.5-9.6,3.4-13.3-0.2c-3.5-3.4-3.5-8.9-0.2-12.4C791.5,257.7,791.6,257.6,791.7,257.5z"/>
				</g>
				<g>
					<path class="st12" d="M793.8,259.5c2.6-2.4,6.6-2.3,9.1,0.1c2.4,2.3,2.4,6.1,0.1,8.5c-0.1,0.1-0.2,0.2-0.3,0.3
						c-2.6,2.4-6.6,2.3-9.1-0.1c-2.4-2.3-2.4-6.1-0.1-8.5C793.6,259.6,793.7,259.6,793.8,259.5z"/>
				</g>
				<g>
					<path class="st13" d="M795.3,261c1.7-1.6,4.4-1.6,6.1,0.1c1.6,1.5,1.6,4.1,0.1,5.7c-0.1,0.1-0.1,0.1-0.2,0.2
						c-1.7,1.6-4.4,1.6-6.1-0.1c-1.6-1.5-1.6-4.1-0.1-5.7C795.1,261.1,795.2,261,795.3,261L795.3,261z"/>
				</g>
				<g>
					<path class="st11" d="M791.6,261.4c1.2-1.1,3-1.1,4.2,0.1c1.1,1,1.1,2.8,0.1,3.9c0,0-0.1,0.1-0.1,0.1c-1.2,1.1-3,1.1-4.2-0.1
						c-1.1-1-1.1-2.8-0.1-3.9C791.5,261.5,791.6,261.4,791.6,261.4L791.6,261.4z"/>
				</g>
			</g>
		</g>
	</g>
	<g id="_x34_04" class="st14">
		<path class="st11" d="M675.5,208.7v192.4h37.4v30.5h-37.4V500h-32.9v-68.5H505.7v-28.8c12.7-14.4,25.6-29.7,38.6-46
			c13-16.3,25.4-32.9,37.3-49.7c11.8-16.8,22.8-33.5,32.9-50.3c10.1-16.7,18.6-32.7,25.5-48H675.5z M543.2,401.1h99.3V258.5
			c-10.2,17.7-19.8,33.6-28.8,47.5c-9.1,13.9-17.7,26.6-25.9,38c-8.2,11.4-16,21.7-23.5,30.9C556.9,384.1,549.9,392.8,543.2,401.1z"
			/>
		<path class="st11" d="M934.3,353.1c0,24.4-2.2,46-6.6,64.8c-4.4,18.8-10.8,34.7-19.1,47.6c-8.3,12.9-18.6,22.8-30.7,29.5
			c-12.1,6.7-25.9,10.1-41.3,10.1c-14.6,0-27.7-3.2-39.1-9.6c-11.4-6.4-21.1-15.8-28.9-28.1c-7.9-12.3-13.8-27.5-17.9-45.4
			c-4.1-17.9-6.1-38.5-6.1-61.6c0-25.5,2.1-47.9,6.4-67.4s10.5-35.9,18.8-49.1c8.3-13.2,18.5-23.2,30.8-29.9
			c12.3-6.7,26.3-10.1,42.1-10.1C903.7,203.8,934.3,253.6,934.3,353.1z M900.1,356.4c0-82.9-19.7-124.3-59.1-124.3
			c-41.6,0-62.4,42.2-62.4,126.5c0,78.7,20.4,118,61.1,118C880,476.6,900.1,436.6,900.1,356.4z"/>
		<path class="st11" d="M1124,208.7v192.4h37.4v30.5H1124V500h-32.9v-68.5H954.2v-28.8c12.7-14.4,25.6-29.7,38.6-46
			c13-16.3,25.4-32.9,37.3-49.7c11.8-16.8,22.8-33.5,32.9-50.3c10.1-16.7,18.6-32.7,25.5-48H1124z M991.7,401.1h99.3V258.5
			c-10.2,17.7-19.8,33.6-28.8,47.5c-9.1,13.9-17.7,26.6-25.9,38c-8.2,11.4-16,21.7-23.5,30.9C1005.4,384.1,998.4,392.8,991.7,401.1z
			"/>
	</g>
</g>
</svg>
